<?xml version="1.0" encoding="utf-8"?>
<!-- Generator: Adobe Illustrator 24.1.1, SVG Export Plug-In . SVG Version: 6.00 Build 0)  -->
<svg version="1.1" id="Capa_1" xmlns="http://www.w3.org/2000/svg" xmlns:xlink="http://www.w3.org/1999/xlink" x="0px" y="0px"
	 viewBox="0 0 21.3 21.3" style="enable-background:new 0 0 21.3 21.3;" xml:space="preserve">
<style type="text/css">
	.st0{fill:#FFFFFF;}
</style>
<g>
	<path class="st0" d="M6.8,20.5c-0.9,0-1.8-0.2-2.6-0.5c-0.8-0.3-1.5-0.8-2.2-1.3c-0.6-0.6-1.1-1.2-1.4-2C0.2,16,0,15.2,0,14.3V7
		c0-0.9,0.2-1.7,0.5-2.4c0.4-0.8,0.8-1.4,1.4-2c0.6-0.6,1.3-1,2.2-1.3C5,0.9,5.8,0.8,6.8,0.8h4.7c0.4,0.1,0.9,0.2,1.4,0.4
		c0.5,0.2,1,0.4,1.5,0.7c0.5,0.3,0.9,0.6,1.3,1c0.4,0.4,0.7,0.8,1,1.3l0.2,0.3c0.1,0.1,0.1,0.2,0.1,0.4c0,0.1,0.1,0.3,0.1,0.5
		c0,0.2,0.1,0.5,0.2,0.9c0.1,0.4,0.1,0.7,0.2,1c0.1,0.3,0.2,0.5,0.4,0.7c0.1,0.1,0.3,0.2,0.6,0.2c0.3,0,0.6,0,0.9,0.1
		c0.3,0,0.6,0,0.9,0c0.3,0,0.4,0.1,0.5,0.1L21,8.6L21.2,9l0.1,0.3l-0.1,5c0,0.8-0.2,1.6-0.5,2.4c-0.4,0.8-0.8,1.4-1.4,2
		c-0.6,0.6-1.3,1-2.2,1.3c-0.8,0.3-1.7,0.5-2.6,0.5L6.8,20.5L6.8,20.5z M6.8,5.9C6.5,5.9,6.2,6,5.9,6.2C5.7,6.5,5.5,6.8,5.5,7.1
		c0,0.3,0.1,0.6,0.4,0.8c0.3,0.2,0.6,0.3,0.9,0.3h3.7c0.4,0,0.7-0.1,0.9-0.4c0.3-0.2,0.4-0.5,0.4-0.8c0-0.3-0.1-0.6-0.4-0.8
		c-0.3-0.2-0.6-0.4-0.9-0.4L6.8,5.9L6.8,5.9z M5.5,14.4c0,0.3,0.1,0.5,0.4,0.7c0.3,0.2,0.6,0.3,0.9,0.3h7.6c0.4,0,0.7-0.1,0.9-0.3
		c0.2-0.2,0.4-0.4,0.4-0.7c0-0.3-0.1-0.5-0.4-0.7c-0.2-0.2-0.5-0.3-0.9-0.3H6.8c-0.4,0-0.7,0.1-0.9,0.3C5.7,13.9,5.5,14.1,5.5,14.4z
		"/>
</g>
</svg>
