<?xml version="1.0" encoding="utf-8"?>
<!-- Generator: Adobe Illustrator 24.1.1, SVG Export Plug-In . SVG Version: 6.00 Build 0)  -->
<svg version="1.1" id="Bold" xmlns="http://www.w3.org/2000/svg" xmlns:xlink="http://www.w3.org/1999/xlink" x="0px" y="0px"
	 viewBox="0 0 512 512" style="enable-background:new 0 0 512 512;" xml:space="preserve">
<style type="text/css">
	.st0{stroke:#000000;stroke-miterlimit:10;}
	.st1{fill:#FFFFFF;}
</style>
<rect x="48" y="143" class="st0" width="413" height="164"/>
<path class="st1" d="M201.9,198.5l-14.8,41.6h29.5L201.9,198.5z"/>
<path class="st1" d="M256,21.3C114.6,21.3,0,111.1,0,221.8c0,71.6,47.9,134.4,120,169.9c-27.7,94.9-28.4,95.4-23.7,98.1
	c5.9,3.4,13.5-0.1,114.3-70.6c14.8,2.1,30,3.2,45.5,3.2c141.4,0,256-89.8,256-200.5S397.4,21.3,256,21.3L256,21.3z M129.2,277.8
	c0,7.7-6.6,14-14.8,14s-14.8-6.3-14.8-14v-87.2h-23c-8,0-14.5-6.4-14.5-14.4s6.5-14.4,14.5-14.4h75.6c8,0,14.5,6.4,14.5,14.4
	s-6.5,14.4-14.5,14.4h-23L129.2,277.8z M244,291.6c-15.4,0-12.5-12.1-19.6-25.5h-45c-7,13.3-4.3,25.5-19.6,25.5
	c-14.8,0-17.4-9-12.9-22.8l35.3-92.4c2.5-7,10-14.3,19.7-14.5c9.6,0.2,17.2,7.4,19.7,14.5C244.8,248.7,278.1,291.7,244,291.6z
	 M328,289.7h-47.4c-24.7,0-9.7-33.4-14.1-113.1c0-8.1,6.8-14.7,15.1-14.7s15.1,6.6,15.1,14.7v86.2H328c7.8,0,14.1,6,14.1,13.4
	C342.1,283.6,335.8,289.7,328,289.7z M443.6,278.6c-0.5,3.9-2.6,7.3-5.7,9.7c-20.4,15.4-35.4-29.5-55.3-48.4l-5.1,5.1v32
	c0,8.1-6.6,14.7-14.8,14.7c-8.1,0-14.8-6.6-14.8-14.7V176.6c0-8.1,6.6-14.7,14.8-14.7s14.8,6.6,14.8,14.7v31.5
	c27.2-20.4,42.3-57,59.6-39.9c16.9,16.8-18.1,31.4-32.6,51.7C438.6,267.1,445.1,268.3,443.6,278.6L443.6,278.6z"/>
</svg>
