<?xml version="1.0" encoding="utf-8"?>
<!-- Generator: Adobe Illustrator 24.1.1, SVG Export Plug-In . SVG Version: 6.00 Build 0)  -->
<svg version="1.1" id="Capa_1" xmlns="http://www.w3.org/2000/svg" xmlns:xlink="http://www.w3.org/1999/xlink" x="0px" y="0px"
	 viewBox="0 0 512 512" style="enable-background:new 0 0 512 512;" xml:space="preserve">
<g>
	<g>
		<path d="M137.9,138.7c7.8,7.8,20.5,7.8,28.3-0.1L236,68.4V492c0,11,9,20,20,20c11,0,20-9,20-20V68.4l69.8,70.2
			c7.8,7.8,20.5,7.9,28.3,0.1c7.8-7.8,7.9-20.5,0.1-28.3L270.2,5.9c0,0,0,0,0,0c-7.8-7.8-20.5-7.8-28.3,0c0,0,0,0,0,0l-104,104.5
			C130,118.2,130.1,130.9,137.9,138.7z"/>
	</g>
</g>
</svg>
