<?xml version="1.0" encoding="iso-8859-1"?>
<!-- Generator: Adobe Illustrator 19.0.0, SVG Export Plug-In . SVG Version: 6.00 Build 0)  -->
<svg version="1.1" id="Capa_1" xmlns="http://www.w3.org/2000/svg" xmlns:xlink="http://www.w3.org/1999/xlink" x="0px" y="0px"
	 viewBox="0 0 507.9 507.9" style="enable-background:new 0 0 507.9 507.9;" xml:space="preserve">
<g>
	<g>
		<path d="M491.31,240.6l-50.4-59.7c-30.5-36.2-75.2-56.9-122.6-56.9c-5.7,0-10.6,3.4-12.8,8.3l-37.4-25.3V89.9
			c18.5-6,31.9-23.4,31.9-43.8c0.1-25.4-20.6-46.1-46-46.1c-25.4,0-46.1,20.7-46.1,46.1c0,7.8,6.3,14.1,14.1,14.1
			s14.1-6.3,14.1-14.1c0-9.8,8-17.8,17.8-17.8c9.8,0,17.8,8,17.8,17.8c0,9.8-8,17.8-17.8,17.8c-7.8,0-14.1,6.3-14.1,14.1v29
			l-37.4,25.2c-2.2-4.9-7.1-8.3-12.8-8.3c-47.3,0-92,20.7-122.6,56.9l-50.4,59.7c-4.7,5.6-4.4,13.9,0.8,19.1l59.6,59.6
			c2.9,2.9,6.9,4.4,11,4.1c4.1-0.3,7.8-2.4,10.3-5.7l9.2-12.4v188.6c0,7.8,6.3,14.1,14.1,14.1h264.5c7.8,0,14.1-6.3,14.1-14.1V305.3
			l9.2,12.4c2.4,3.3,6.2,5.4,10.3,5.7s8.1-1.2,11-4.1l59.6-59.6C495.71,254.5,496.01,246.2,491.31,240.6z M254.01,131.5l44.4,29.9
			c-8.4,15.9-25.2,26.8-44.4,26.8s-36-10.9-44.4-26.8L254.01,131.5z M422.51,287.7l-24.9-33.5c-3.6-4.9-10-6.9-15.8-5
			c-5.8,1.9-9.7,7.3-9.7,13.4v217.2h-236.3V262.6c0-6.1-3.9-11.5-9.7-13.4c-5.8-1.9-12.1,0.1-15.8,5l-24.9,33.5l-38.9-38.8l42-49.8
			c22.4-26.5,54.1-43,88.3-46.3c6.9,36.2,38.8,63.7,77,63.7c38.2,0,70.1-27.5,77-63.7c34.2,3.3,65.9,19.8,88.3,46.3l42.1,49.8
			L422.51,287.7z"/>
	</g>
</g>
<g>
</g>
<g>
</g>
<g>
</g>
<g>
</g>
<g>
</g>
<g>
</g>
<g>
</g>
<g>
</g>
<g>
</g>
<g>
</g>
<g>
</g>
<g>
</g>
<g>
</g>
<g>
</g>
<g>
</g>
</svg>
