<?xml version="1.0" encoding="utf-8"?>
<!-- Generator: Adobe Illustrator 24.1.1, SVG Export Plug-In . SVG Version: 6.00 Build 0)  -->
<svg version="1.1" id="Layer" xmlns="http://www.w3.org/2000/svg" xmlns:xlink="http://www.w3.org/1999/xlink" x="0px" y="0px"
	 viewBox="0 0 512 512" style="enable-background:new 0 0 512 512;" xml:space="preserve">
<path d="M256,448c8.8,0,16-7.2,16-16V112.8L388.4,235c3.1,3.3,7.4,5,11.6,5c4,0,7.9-1.5,11-4.4c6.4-6.1,6.6-16.2,0.6-22.6
	l-133-139.6c-6-6-14.1-9.4-22.6-9.4s-16.6,3.3-22.9,9.7L100.4,213c-6.1,6.4-5.8,16.5,0.6,22.6s16.5,5.8,22.6-0.6L240,112.3V432
	C240,440.8,247.2,448,256,448L256,448z"/>
</svg>
