<?xml version="1.0" encoding="utf-8"?>
<!-- Generator: Adobe Illustrator 24.1.1, SVG Export Plug-In . SVG Version: 6.00 Build 0)  -->
<svg version="1.1" id="Capa_1" xmlns="http://www.w3.org/2000/svg" xmlns:xlink="http://www.w3.org/1999/xlink" x="0px" y="0px"
	 viewBox="0 0 512 512" style="enable-background:new 0 0 512 512;" xml:space="preserve">
<style type="text/css">
	.st0{fill:#FFFFFF;}
</style>
<g>
	<g>
		<path class="st0" d="M0.4,133.1l14.8,71c2,9.4,10.3,15.9,19.6,15.9c1.4,0,2.7-0.1,4.1-0.4c10.8-2.3,17.8-12.8,15.5-23.7L44.6,149
			h333.3L360,313H119.7c-19.3,0-38-12.9-46.4-32c-4.4-10.1-16.2-14.7-26.4-10.3c-10.1,4.4-14.7,16.2-10.3,26.4
			c14.9,34,47.5,56,83,56H375c11,0,20,9,20,20c0,0.2,0,0.3,0,0.5s0,0.3,0,0.5c0,11-9,20-20,20H113c-32.5,0-59,26.5-59,59
			s26.5,59,59,59s59-26.5,59-59c0-6.6-1.1-13-3.1-19h86.3c-2,6-3.1,12.4-3.1,19c0,32.5,26.5,59,59,59s59-26.5,59-59
			c0-6.6-1.1-13-3.1-19h8.1c33.1,0,60-26.9,60-60c0-0.2,0-0.3,0-0.5s0-0.3,0-0.5c0-24.3-14.5-45.2-35.3-54.7L423.6,100
			c4.6-34.2,34-59.9,68.5-59.9c11,0,20-9,20-20s-9-20-20-20C437.5,0.1,391,40.9,383.9,95l-0.1,0.4l-1.5,13.6H20
			c-6,0-11.7,2.7-15.5,7.4C0.7,121.1-0.8,127.2,0.4,133.1z M132,453c0,10.5-8.5,19-19,19s-19-8.5-19-19s8.5-19,19-19
			S132,442.5,132,453z M330,453c0,10.5-8.5,19-19,19s-19-8.5-19-19s8.5-19,19-19S330,442.5,330,453z"/>
	</g>
</g>
</svg>
